<?xml version="1.0" encoding="UTF-8" standalone="no"?>
<!-- Created with Inkscape (http://www.inkscape.org/) -->

<svg
   xmlns:dc="http://purl.org/dc/elements/1.1/"
   xmlns:cc="http://creativecommons.org/ns#"
   xmlns:rdf="http://www.w3.org/1999/02/22-rdf-syntax-ns#"
   xmlns:svg="http://www.w3.org/2000/svg"
   xmlns="http://www.w3.org/2000/svg"
   xmlns:sodipodi="http://sodipodi.sourceforge.net/DTD/sodipodi-0.dtd"
   xmlns:inkscape="http://www.inkscape.org/namespaces/inkscape"
   width="490"
   height="160"
   viewBox="0 0 490 160"
   id="svg2"
   version="1.1"
   inkscape:version="0.91 r13725"
   sodipodi:docname="fedora_logo_darkbackground.svg">
  <defs
     id="defs4">
    <inkscape:perspective
       id="perspective3311"
       inkscape:persp3d-origin="372.04724 : 350.78738 : 1"
       inkscape:vp_z="744.09447 : 526.18108 : 1"
       inkscape:vp_y="0 : 999.99998 : 0"
       inkscape:vp_x="0 : 526.18108 : 1"
       sodipodi:type="inkscape:persp3d" />
    <inkscape:perspective
       sodipodi:type="inkscape:persp3d"
       inkscape:vp_x="0 : 0.49999999 : 1"
       inkscape:vp_y="0 : 999.99998 : 0"
       inkscape:vp_z="0.99999999 : 0.49999999 : 1"
       inkscape:persp3d-origin="0.5 : 0.33333332 : 1"
       id="perspective3342" />
    <linearGradient
       id="linearGradient832-6-6-7-0">
      <stop
         id="stop834-6-1-43-48"
         offset="0"
         style="stop-color:#ffffff;stop-opacity:0;" />
      <stop
         id="stop836-6-9-1-4"
         offset="1"
         style="stop-color:#000000;stop-opacity:0.5;" />
    </linearGradient>
  </defs>
  <sodipodi:namedview
     id="base"
     pagecolor="#ffffff"
     bordercolor="#666666"
     borderopacity="1.0"
     inkscape:pageopacity="0.0"
     inkscape:pageshadow="2"
     inkscape:zoom="2.4673494"
     inkscape:cx="237.90712"
     inkscape:cy="94.999905"
     inkscape:document-units="px"
     inkscape:current-layer="g4019"
     showgrid="false"
     inkscape:window-width="1366"
     inkscape:window-height="709"
     inkscape:window-x="1916"
     inkscape:window-y="312"
     inkscape:window-maximized="1"
     units="px"
     showborder="false"
     fit-margin-left="10"
     fit-margin-right="10"
     fit-margin-top="10"
     fit-margin-bottom="10" />
  <metadata
     id="metadata7">
    <rdf:RDF>
      <cc:Work
         rdf:about="">
        <dc:format>image/svg+xml</dc:format>
        <dc:type
           rdf:resource="http://purl.org/dc/dcmitype/StillImage" />
        <dc:title></dc:title>
      </cc:Work>
    </rdf:RDF>
  </metadata>
  <g
     inkscape:label="Layer 1"
     inkscape:groupmode="layer"
     id="layer1"
     transform="translate(-104.83105,-444.14045)">
    <g
       id="layer1-3"
       transform="matrix(1.228349,0,0,1.228349,-36.750227,-90.047003)">
      <g
         transform="matrix(1.25,0,0,-1.25,122.9256,557.44533)"
         id="g4017">
        <g
           transform="scale(0.1,0.1)"
           id="g4019">
          <path
             id="path4021"
             style="fill:#ffffff;fill-opacity:1;fill-rule:nonzero;stroke:none"
             d="m 1897.0277,604.38464 c 13.0161,9.69351 27.1257,17.05237 42.2904,22.06122 16.1239,5.3206 33.4755,7.99192 52.0165,7.99192 10.8388,0 21.4378,-1.06373 31.7586,-3.18449 10.3112,-2.11692 20.3443,-5.29757 30.0896,-9.5314 9.7261,-4.22713 18.8863,-9.23215 27.4614,-14.99109 8.5847,-5.77044 16.6035,-12.30824 24.0563,-19.59228 l 0,-0.0115 c 7.4145,-7.30994 14.0617,-15.25294 19.9319,-23.81461 5.8702,-8.57223 10.973,-17.77464 15.3086,-27.61394 l 0,0 c 4.3355,-9.90261 7.5967,-20.12367 9.7644,-30.66414 2.1774,-10.54719 3.2613,-21.40131 3.2613,-32.54031 l 0,-151.25547 c 0,-4.71343 -0.8345,-9.08596 -2.4747,-13.1176 l 0,0 c -1.6306,-4.02406 -4.0957,-7.69591 -7.3282,-10.99311 l -0.019,-0.0225 c -3.3092,-3.24846 -6.9541,-5.70637 -10.9155,-7.34379 -3.9614,-1.63733 -8.2394,-2.46913 -12.7859,-2.46913 -4.7096,0 -9.0835,0.82806 -13.0929,2.46165 -4.0381,1.63732 -7.7118,4.10281 -11.021,7.35127 l -0.019,0.0225 c -3.242,3.2972 -5.6975,6.96905 -7.3377,10.99311 l 0,0 c -1.6402,4.03164 -2.4747,8.40417 -2.4747,13.1176 l 0,151.35619 c 0,6.44859 -0.6139,12.70918 -1.8608,18.75683 -1.247,6.05053 -3.127,11.94472 -5.64,17.64706 l 0,0.004 c -2.5227,5.7551 -5.4866,11.14284 -8.8821,16.16033 -3.3955,5.02036 -7.2034,9.66281 -11.4047,13.91583 -4.2683,4.26741 -8.9108,8.10414 -13.8985,11.4987 -4.9878,3.39838 -10.3496,6.36226 -16.0664,8.88395 -5.7071,2.51786 -11.5965,4.39786 -17.6489,5.64192 -6.0525,1.24406 -12.316,1.8589 -18.7617,1.8589 -13.0736,0 -25.2073,-2.46894 -36.5065,-7.39626 -5.6688,-2.46894 -11.0018,-5.41076 -15.9896,-8.80147 -4.9686,-3.37921 -9.6302,-7.25335 -13.9753,-11.5927 -4.3163,-4.324 -8.1914,-8.98467 -11.5678,-13.99065 -3.3763,-5.01269 -6.2826,-10.39371 -8.6997,-16.15649 l -0.019,-0.0144 c -2.4651,-5.69179 -4.3164,-11.58885 -5.5441,-17.66241 -1.2374,-6.04381 -1.8512,-12.3044 -1.8512,-18.75299 l 0,-151.35619 c 0,-4.71717 -0.8249,-9.09345 -2.4651,-13.1176 l -0.01,0 c -1.6402,-4.0278 -4.0957,-7.69966 -7.3378,-10.99311 l -0.019,-0.0225 c -3.2996,-3.24846 -6.9445,-5.70637 -10.9059,-7.34379 -3.9614,-1.63733 -8.2298,-2.46913 -12.7859,-2.46913 -4.7096,0 -9.0835,0.82806 -13.1025,2.46165 -4.0285,1.63732 -7.7118,4.10281 -11.0114,7.35127 l -0.019,0.0225 c -3.2516,3.2972 -5.7071,6.96905 -7.3473,10.99311 l 0.01,0 c -1.6498,4.03164 -2.4747,8.40417 -2.4747,13.1176 l 0,279.2499 c 0,4.60887 0.8249,8.93959 2.4651,12.94514 1.6306,3.99404 4.0957,7.65812 7.3473,10.95963 3.2996,3.36482 6.9733,5.87884 10.9923,7.5459 l 0.01,0 c 4.0285,1.66706 8.4216,2.49867 13.1312,2.49867 4.5753,0 8.8724,-0.84216 12.8531,-2.52457 3.9422,-1.67186 7.5679,-4.1782 10.8579,-7.52 3.2325,-3.29 5.6976,-6.90132 7.3282,-10.79081 1.2373,-2.92647 2.0143,-6.00641 2.3308,-9.21776"
             inkscape:connector-curvature="0" />
          <path
             id="path4023"
             style="fill:#ffffff;fill-opacity:1;fill-rule:nonzero;stroke:none"
             d="m 740.56682,653.71929 c 5.13355,0 9.89494,-0.92177 14.27553,-2.76532 l 0.004,0.008 c 4.36428,-1.83588 8.34394,-4.59353 11.91498,-8.26145 3.55569,-3.65737 6.23469,-7.70033 8.01781,-12.10969 l 0,-0.004 c 1.78696,-4.418 2.68668,-9.19857 2.68668,-14.32828 l 0,-147.67688 c 0,-12.58928 -1.22584,-24.84861 -3.66121,-36.75975 -2.4392,-11.8958 -6.09561,-23.44341 -10.97018,-34.62078 -4.87473,-11.18041 -10.60394,-21.64511 -17.17914,-31.3718 -6.59439,-9.7454 -14.05108,-18.77899 -22.35761,-27.08571 -8.3027,-8.30662 -17.34012,-15.75909 -27.08543,-22.35722 -9.71941,-6.57184 -20.1841,-12.3045 -31.36435,-17.17907 -11.18504,-4.87466 -22.73936,-8.53529 -34.63228,-10.96692 -11.91114,-2.4392 -24.16663,-3.66063 -36.75208,-3.66063 -12.77729,0 -25.1709,1.22143 -37.17988,3.66063 l -0.004,0 c -11.98979,2.43163 -23.59016,6.09226 -34.7704,10.96692 -11.18792,4.87457 -21.64494,10.60723 -31.36819,17.17907 -9.7453,6.59813 -18.77889,14.0506 -27.08542,22.35722 -8.30366,8.30298 -15.75939,17.34031 -22.35378,27.08571 -6.5752,9.72286 -12.30824,20.19139 -17.17898,31.37163 -4.87841,11.17737 -8.53577,22.72498 -10.97114,34.62078 -2.43921,11.91114 -3.66408,24.17047 -3.66408,36.75975 l 0,147.67688 c 0,5.13738 0.92561,9.92946 2.75765,14.33979 1.83588,4.41704 4.58586,8.46384 8.24322,12.12025 7.332,7.33295 16.15649,11.00087 26.46772,11.00087 5.13259,0 9.89877,-0.92177 14.27841,-2.76532 l 0,0.008 c 4.37291,-1.83588 8.35161,-4.59353 11.91881,-8.26145 3.5557,-3.65737 6.2347,-7.67731 8.01782,-12.06461 1.78408,-4.39114 2.68284,-9.14678 2.68284,-14.28704 l 0,-147.38816 c 0,-7.67347 0.72322,-15.0659 2.16583,-22.17345 1.44261,-7.10084 3.61229,-13.94557 6.49751,-20.50255 l 0,-0.004 c 2.89194,-6.62412 6.298,-12.85881 10.21723,-18.69257 3.91922,-5.83088 8.35161,-11.26753 13.28949,-16.29557 4.94938,-5.00502 10.3563,-9.49016 16.18622,-13.43912 5.79635,-3.9269 12.06845,-7.35502 18.78273,-10.24417 6.71813,-2.89252 13.66453,-5.062 20.82484,-6.50452 7.15647,-1.43877 14.57575,-2.1619 22.24539,-2.1619 14.91243,0 29.08628,2.89251 42.49567,8.66642 6.71429,2.88915 13.00941,6.31343 18.86522,10.24705 5.88268,3.95375 11.34907,8.44177 16.39629,13.44008 5.04339,5.04338 9.54675,10.48387 13.49955,16.29461 3.96431,5.82704 7.39627,12.06173 10.293,18.68969 l 0,0.004 c 2.88522,6.56082 5.0501,13.40555 6.48888,20.50255 1.33422,6.57904 2.05361,13.41706 2.15528,20.4872 l -0.5592,0 0,149.07441 c 0,5.15177 0.92561,9.91028 2.76149,14.30143 1.833,4.3873 4.57914,8.40053 8.23939,12.06077 l 0.004,0 0.004,0.008 c 3.65737,3.65736 7.69553,6.40734 12.10586,8.24322 4.418,1.83588 9.21391,2.75765 14.35418,2.75765"
             inkscape:connector-curvature="0" />
          <path
             id="path4025"
             style="fill:#ffffff;fill-opacity:1;fill-rule:nonzero;stroke:none"
             d="m 996.5269,653.71162 c 4.9206,-0.38943 9.4863,-1.56251 13.6971,-3.48759 4.2109,-1.92604 8.0476,-4.62039 11.4911,-8.07153 l 0.01,-0.003 c 3.4626,-3.47033 6.0812,-7.32912 7.8173,-11.55145 1.7361,-4.23384 2.609,-8.82833 2.609,-13.77771 0,-5.14411 -0.9208,-9.92851 -2.7529,-14.35035 -1.832,-4.40937 -4.5849,-8.44465 -8.2394,-12.10202 -3.6545,-3.66408 -7.7022,-6.42173 -12.1145,-8.25378 -4.4218,-1.83587 -9.20812,-2.76149 -14.34934,-2.76149 l -2.84878,0 0,0.004 c -7.24184,-0.37504 -14.29184,-1.4052 -21.11163,-3.07226 -6.83898,-1.6757 -13.48996,-4.00555 -19.92321,-6.99533 -6.45147,-2.9869 -12.4761,-6.47065 -18.05951,-10.42441 -5.57861,-3.95279 -10.75724,-8.40724 -15.51191,-13.34992 -4.75851,-4.93787 -9.0029,-10.2882 -12.72741,-16.00973 -3.72835,-5.7292 -6.95025,-11.86606 -9.65227,-18.39714 l 0,-0.007 c -2.70106,-6.52341 -4.73165,-13.28277 -6.08026,-20.25604 -1.34574,-6.97614 -2.02772,-14.21894 -2.02772,-21.69769 l 0,-147.67283 c 0,-5.14439 -0.92177,-9.90654 -2.75765,-14.27907 -1.83204,-4.36505 -4.59353,-8.34413 -8.26145,-11.91114 -3.65737,-3.55943 -7.7032,-6.23469 -12.11353,-8.02184 -4.41704,-1.78725 -9.20241,-2.68275 -14.32732,-2.68275 -5.13356,0 -9.89207,0.89924 -14.26786,2.68649 -4.38443,1.79089 -8.36696,4.47737 -11.91882,8.02942 -3.55569,3.55569 -6.23853,7.53477 -8.02932,11.91852 -1.78792,4.37253 -2.68668,9.13104 -2.68668,14.26037 l 0,147.67283 c 0,12.59312 1.17308,24.80065 3.51445,36.59957 2.33753,11.80563 5.85582,23.21129 10.53951,34.20449 4.66835,10.97018 10.19133,21.28908 16.54592,30.93367 6.35459,9.66282 13.54847,18.63982 21.55573,26.93963 8.04084,8.32092 16.78572,15.80351 26.23847,22.43915 9.42686,6.6174 19.61147,12.4243 30.51068,17.39671 10.89536,4.97145 22.18495,8.79763 33.82657,11.46512 11.64257,2.67133 23.68991,4.20027 36.11134,4.58586 l 0.048,0.008 5.11245,0 0.13429,-0.008"
             inkscape:connector-curvature="0" />
          <path
             id="path4027"
             style="fill:#ffffff;fill-opacity:1;fill-rule:nonzero;stroke:none"
             d="m 1645.5201,321.47459 c 0,-4.942 -0.8824,-9.53562 -2.6185,-13.76572 -1.7361,-4.23019 -4.3547,-8.08937 -7.8174,-11.55519 l 0,-0.008 c -3.4434,-3.43962 -7.2898,-6.14107 -11.5102,-8.0744 -4.1916,-1.92585 -8.7669,-3.09864 -13.6875,-3.48452 l -0.1343,-0.007 -5.1125,0 -0.048,0.007 c -12.4214,0.3784 -24.4688,1.91088 -36.1037,4.57857 -11.6445,2.66777 -22.9341,6.5045 -33.84,11.47653 -10.8963,4.96828 -21.102,10.78707 -30.5979,17.42261 -9.4768,6.63562 -18.2629,14.1068 -26.32,22.4022 -8.0668,8.30298 -15.3086,17.28401 -21.716,26.93953 -6.3977,9.6514 -11.9706,19.97029 -16.6898,30.93376 -4.7287,10.98937 -8.2681,22.39886 -10.6181,34.20065 -2.35,11.8066 -3.5298,24.017 -3.5298,36.60629 l 0,147.67304 c 0,5.13738 0.9016,9.89973 2.7049,14.27169 1.7936,4.36908 4.5081,8.34394 8.1147,11.90731 l -0.01,0.008 c 3.5585,3.55186 7.5583,6.23086 11.9706,8.02549 4.4122,1.78792 9.2177,2.68667 14.4069,2.68667 10.3784,0 19.2988,-3.5672 26.627,-10.69298 3.7024,-3.55569 6.4936,-7.54302 8.3449,-11.92265 1.8512,-4.37963 2.7816,-9.14582 2.7816,-14.2832 l -0.01,0 -0.5755,-147.67304 0.01,0 c 0,-7.46341 0.7098,-14.69086 2.1006,-21.67467 1.3908,-6.99149 3.4914,-13.7547 6.2827,-20.26276 2.8008,-6.54259 6.0908,-12.67945 9.8604,-18.40481 3.7696,-5.7177 8.0475,-11.06419 12.8147,-16.01741 4.7383,-4.93117 9.9275,-9.41631 15.5291,-13.42857 5.6113,-4.02378 11.6349,-7.57275 18.0615,-10.64857 6.4073,-3.05739 13.0353,-5.41411 19.8934,-7.04395 6.8582,-1.6261 13.8986,-2.53666 21.1213,-2.73147 l 0,0.007 2.8391,0 c 5.1509,0 9.9276,-0.92168 14.3494,-2.75765 4.4219,-1.83588 8.4696,-4.58605 12.1241,-8.24294 l -0.01,0 c 3.6641,-3.65688 6.417,-7.70348 8.249,-12.11343 1.832,-4.42125 2.7624,-9.20595 2.7624,-14.35408"
             inkscape:connector-curvature="0" />
          <path
             id="path4029"
             style="fill:#ffffff;fill-opacity:1;fill-rule:nonzero;stroke:none"
             d="m 1726.4177,668.53005 c -5.1316,0 -9.8892,0.91794 -14.2535,2.73559 -4.3834,1.81765 -8.3641,4.55996 -11.9418,8.1828 l 0,0.004 c -3.5586,3.65737 -6.2347,7.68114 -8.0188,12.05406 -1.7841,4.37964 -2.6857,9.11896 -2.6857,14.19976 0,10.20667 3.5682,18.93332 10.7045,26.26149 l 0,0.004 c 3.5777,3.62668 7.5584,6.36227 11.9418,8.1828 4.3643,1.81765 9.1219,2.73943 14.2535,2.73943 5.122,0 9.9084,-0.92178 14.311,-2.73559 4.4219,-1.82437 8.4792,-4.55229 12.1433,-8.16745 l 0,-0.004 c 3.6641,-3.65737 6.4169,-7.67347 8.249,-12.0579 1.8416,-4.37963 2.7624,-9.11896 2.7624,-14.22277 0,-5.09519 -0.9208,-9.83547 -2.7624,-14.21127 -1.8321,-4.3873 -4.5849,-8.41204 -8.2394,-12.06461 l -0.01,0 c -3.6641,-3.61612 -7.7214,-6.34692 -12.1433,-8.16841 -4.4026,-1.81381 -9.189,-2.73175 -14.311,-2.73175"
             inkscape:connector-curvature="0" />
          <path
             id="path4031"
             style="fill:#ffffff;fill-opacity:1;fill-rule:nonzero;stroke:none"
             d="m 1726.4177,629.29752 c 5.1412,0 9.9275,-0.92178 14.3494,-2.75766 4.4122,-1.83587 8.46,-4.58585 12.1145,-8.23938 3.6545,-3.64874 6.4073,-7.69937 8.2394,-12.11737 1.8416,-4.41704 2.7624,-9.21296 2.7624,-14.34939 l 0,-268.65054 c 0,-5.14438 -0.9208,-9.93282 -2.7624,-14.35034 -1.8321,-4.42116 -4.5849,-8.46776 -8.2394,-12.11717 l -0.01,0 c -3.6545,-3.65314 -7.7023,-6.4108 -12.1049,-8.24293 -4.4219,-1.83598 -9.2082,-2.75766 -14.3494,-2.75766 -5.1412,0 -9.9084,0.92168 -14.2822,2.75766 l 0,0.004 c -4.3739,1.84345 -8.3545,4.60111 -11.9131,8.25799 -3.5586,3.65305 -6.2347,7.70339 -8.0188,12.11343 l 0,0.004 c -1.7841,4.41742 -2.6857,9.20212 -2.6857,14.33154 l 0,268.65054 c 0,10.29204 3.5682,19.11557 10.7045,26.4447 3.5682,3.66791 7.5392,6.42557 11.9131,8.26144 4.3642,1.83588 9.141,2.75766 14.2822,2.75766"
             inkscape:connector-curvature="0" />
          <path
             id="path4033"
             style="fill:#ffffff;fill-opacity:1;fill-rule:nonzero;stroke:none"
             d="m 2806.5832,578.18742 52.6783,62.98383 0.029,0.0297 c 3.501,3.98732 7.5104,6.96943 12.009,8.9511 4.489,1.98647 9.4671,2.97539 14.9153,2.97539 2.5035,0 4.9494,-0.2398 7.3186,-0.68966 2.3979,-0.45657 4.7192,-1.15006 6.9349,-2.04977 l 0.029,-0.0105 c 2.1965,-0.94864 4.2491,-2.08335 6.1771,-3.39072 1.9088,-1.30832 3.7024,-2.7989 5.3618,-4.46308 l 0.038,-0.0374 c 1.5827,-1.70063 3.0406,-3.51061 4.3451,-5.44816 1.2949,-1.93276 2.4459,-4.00843 3.4531,-6.25292 l 0.019,-0.0192 c 0.94,-2.19941 1.6978,-4.4698 2.1966,-6.7891 0.5083,-2.31931 0.7769,-4.71727 0.7769,-7.16415 0,-4.39785 -0.7481,-8.60196 -2.2157,-12.596 -1.4675,-3.97965 -3.6641,-7.78281 -6.5608,-11.3903 l -0.019,-0.0269 -59.7571,-71.21555 -1.3045,-1.54333 -1.2853,1.551 -45.1488,54.44519 -0.892,1.07524 0.9016,1.07525"
             inkscape:connector-curvature="0" />
          <path
             id="path4035"
             style="fill:#ffffff;fill-opacity:1;fill-rule:nonzero;stroke:none"
             d="m 2712.6887,465.45744 -106.8435,127.34218 0,0 c -2.7912,3.15859 -4.8822,6.75169 -6.273,10.76492 -1.3813,4.00555 -2.0719,8.42259 -2.0719,13.24824 0,2.41715 0.2111,4.79592 0.6523,7.12674 0.4508,2.34232 1.1414,4.6271 2.091,6.82651 l 0,-0.004 c 0.9496,2.256 2.0526,4.32784 3.3092,6.25772 1.2661,1.94426 2.6857,3.76191 4.2779,5.46638 l 0.038,0.0374 c 1.6594,1.66418 3.4531,3.15476 5.3618,4.46308 l 0.01,0 c 1.9088,1.2997 3.9615,2.43537 6.1676,3.38304 l 0.038,0.0182 c 2.1869,0.89204 4.4889,1.57786 6.8677,2.03826 2.3788,0.45753 4.8535,0.70117 7.3857,0.70117 5.4482,0 10.4455,-0.98892 14.9921,-2.97539 4.5465,-1.974 8.623,-4.95706 12.2391,-8.92808 l 0.048,-0.0528 76.0729,-90.85291 0.01,-0.0106 87.4008,-105.53322 0,0 90.5949,-108.66494 0.01,0.008 c 2.5802,-2.94498 4.5465,-6.31708 5.8414,-10.11632 1.3045,-3.7693 1.9567,-7.95076 1.9567,-12.56683 0,-2.44295 -0.2686,-4.83716 -0.7769,-7.16385 -0.4988,-2.31557 -1.2566,-4.58615 -2.1966,-6.78556 l -0.019,-0.0187 c -1.0072,-2.24803 -2.1582,-4.3238 -3.4531,-6.25339 -1.3045,-1.94465 -2.7624,-3.7506 -4.3451,-5.45162 l -0.038,-0.045 c -1.6402,-1.64106 -3.4338,-3.13231 -5.3618,-4.4512 -1.9088,-1.29639 -3.9614,-2.43167 -6.1771,-3.38712 l -0.029,-0.0187 c -2.2157,-0.89923 -4.537,-1.59239 -6.9349,-2.0495 -2.3692,-0.45336 -4.8151,-0.68942 -7.3186,-0.68942 -4.9877,0 -9.6686,0.92921 -14.0424,2.79138 -4.3739,1.86216 -8.4121,4.65358 -12.1337,8.37042 l 0.019,-0.0188 -0.1151,0.1387 -99.7647,120.16766 -100.5512,-120.17524 -0.067,-0.0674 c -3.5106,-3.73928 -7.4145,-6.54565 -11.7308,-8.40782 l 0,-0.008 c -4.3074,-1.86191 -9.017,-2.79111 -14.1295,-2.79111 -2.5322,0 -5.0069,0.24354 -7.3857,0.70065 -2.3692,0.46086 -4.6616,1.15027 -6.8677,2.03827 l -0.038,0.0187 c -2.2061,0.95544 -4.2684,2.08697 -6.1772,3.38711 -1.9279,1.3189 -3.7216,2.81014 -5.3618,4.45121 l -0.038,0.045 c -1.5922,1.70475 -3.0118,3.51828 -4.2779,5.47032 -1.2566,1.92959 -2.3596,4.00535 -3.3092,6.25713 l 0,-0.004 c -0.9496,2.19941 -1.6402,4.48121 -2.091,6.82296 -0.4412,2.33427 -0.6523,4.71352 -0.6523,7.12644 0,4.47373 0.6043,8.59515 1.8033,12.36071 l 0,0.004 c 1.2086,3.78427 3.0406,7.20894 5.4961,10.25875 l 0.019,0.0188 107.8698,129.38149"
             inkscape:connector-curvature="0" />
          <path
             id="path4037"
             style="fill:#ffffff;fill-opacity:1;fill-rule:nonzero;stroke:none"
             d="m 2522.9526,653.71929 c 5.1316,0 9.8988,-0.92177 14.2822,-2.76532 l 0,0.008 c 4.3643,-1.83588 8.3449,-4.59353 11.9131,-8.26145 3.5586,-3.65737 6.2347,-7.7032 8.0188,-12.11353 1.7936,-4.418 2.6857,-9.20624 2.6857,-14.32828 l 0,-147.67688 c 0,-25.2083 -4.8823,-49.01524 -14.6372,-71.38053 -4.8726,-11.18024 -10.599,-21.64494 -17.1694,-31.37163 -6.5895,-9.7454 -14.0616,-18.78273 -22.3585,-27.08571 -8.3066,-8.30662 -17.3421,-15.75909 -27.0874,-22.35722 -9.7165,-6.57184 -20.1812,-12.3045 -31.3653,-17.17907 -11.1841,-4.87466 -22.7326,-8.53155 -34.6265,-10.96692 -11.9131,-2.4392 -24.1618,-3.66063 -36.7559,-3.66063 -12.7859,0 -25.1786,1.22143 -37.1876,3.66063 l 0,0 c -11.9898,2.43163 -23.5959,6.09226 -34.7704,10.96692 -11.1841,4.87457 -21.6488,10.60723 -31.3653,17.17907 -9.7453,6.59813 -18.7808,14.0506 -27.0873,22.35722 l 0,0.0112 c -8.3162,8.31047 -15.7786,17.34405 -22.3586,27.07449 -6.5704,9.72286 -12.3063,20.19139 -17.179,31.37163 -4.8726,11.17737 -8.5271,22.73265 -10.9635,34.62845 -2.4459,11.90347 -3.664,24.1628 -3.664,36.75208 l 0,147.67688 c 0,5.13738 0.9208,9.92946 2.7528,14.33979 1.8321,4.41704 4.5945,8.46384 8.2394,12.12025 7.3378,7.33295 16.1623,11.00087 26.4735,11.00087 5.1316,0 9.8892,-0.92177 14.2822,-2.76532 l 0,0.008 c 4.3643,-1.83588 8.3449,-4.59353 11.9131,-8.26145 3.5586,-3.65737 6.2347,-7.67347 8.0188,-12.06461 1.784,-4.39114 2.6857,-9.14678 2.6857,-14.28704 l 0,-147.38816 c 0,-7.67347 0.7194,-15.0659 2.1581,-22.17345 1.4484,-7.10084 3.6162,-13.94557 6.5033,-20.50255 l 0,-0.004 c 2.8871,-6.62412 6.3018,-12.86265 10.2153,-18.69257 3.9231,-5.83375 8.3641,-11.27041 13.2847,-16.29557 4.959,-5.00502 10.3592,-9.49016 16.191,-13.43912 5.8031,-3.9269 12.0665,-7.35502 18.7904,-10.24418 6.7143,-2.89251 13.6588,-5.06199 20.8143,-6.50451 7.1555,-1.43877 14.5796,-2.1619 22.2531,-2.1619 14.9153,0 29.0824,2.89251 42.4918,8.66641 6.7143,2.88916 13.0065,6.31344 18.8576,10.24706 5.8893,3.95375 11.3663,8.44177 16.402,13.44008 l 0,0.004 c 5.0549,5.05107 9.5535,10.48772 13.5053,16.29462 3.9614,5.8232 7.3953,12.06173 10.292,18.68585 l 0,0.004 c 2.8776,6.56082 5.0549,13.40555 6.4841,20.50255 1.3429,6.57904 2.0527,13.41706 2.1582,20.4872 l -0.5563,0 0,149.07441 c 0,5.1441 0.9208,9.90645 2.7528,14.30143 1.8417,4.39114 4.5945,8.41971 8.2394,12.06845 l 0.01,-0.008 c 3.6545,3.66504 7.7022,6.41502 12.1049,8.2509 4.4218,1.83588 9.2178,2.75765 14.359,2.75765"
             inkscape:connector-curvature="0" />
          <path
             id="path4039"
             style="fill:#ffffff;fill-opacity:1;fill-rule:nonzero;stroke:none"
             d="m 1171.9904,650.2835 c 14.7042,2.48045 29.303,3.19983 43.7675,2.15049 14.4741,-1.04935 28.8331,-3.87031 43.0674,-8.45233 14.2151,-4.58298 27.5285,-10.70161 39.902,-18.34822 12.3735,-7.6399 23.8165,-16.80874 34.3196,-27.49788 8.5943,-8.59141 16.2198,-17.89453 22.8573,-27.88059 6.6376,-9.98127 12.3064,-20.6637 16.9872,-32.03098 4.6712,-11.35674 8.1434,-22.95327 10.3879,-34.7589 2.2349,-11.78069 3.2709,-23.80022 3.079,-36.02598 l 0.01,0 c 0,-19.48294 -3.1557,-38.50259 -9.4575,-57.04553 -3.1558,-9.26571 -6.9637,-18.17557 -11.3951,-26.72189 l -0.01,0 c -4.4315,-8.54249 -9.5247,-16.7295 -15.2511,-24.56037 l 0,-0.0112 c -9.3616,-12.60425 -19.9702,-23.71735 -31.8161,-33.3204 -11.8555,-9.60306 -24.9483,-17.70365 -39.2594,-24.29055 l -0.01,0 c -14.311,-6.58317 -28.9385,-11.28911 -43.8347,-14.10671 -14.9057,-2.81387 -30.0991,-3.7506 -45.5708,-2.79516 l -0.019,0 c -16.0376,1.13903 -31.7107,4.39498 -47,9.7454 -7.6447,2.67526 -15.0305,5.77764 -22.1188,9.29967 -7.1172,3.53324 -13.9753,7.50858 -20.5745,11.89982 l 0,0.008 c -6.5896,4.38375 -12.8723,9.1647 -18.848,14.32406 -5.9469,5.14438 -11.6157,10.68961 -16.9679,16.6096 -5.3523,5.93869 -10.2921,12.20714 -14.7715,18.78282 -4.4793,6.57923 -8.5463,13.51892 -12.1816,20.78762 l -0.01,0.0182 c -3.4435,7.06247 -6.4265,14.27937 -8.9588,21.62672 -2.5226,7.34734 -4.604,14.852 -6.2251,22.49189 -1.621,7.63223 -2.7528,15.3057 -3.3667,23.00602 -0.6139,7.67347 -0.7386,15.3949 -0.3549,23.14415 0.3741,7.74061 1.2182,15.4323 2.5035,23.05781 1.2853,7.61304 3.031,15.21169 5.2275,22.76143 2.2062,7.57275 4.911,14.91626 8.1051,22.01998 l 0,0.004 c 3.1845,7.09604 6.887,13.99448 11.0882,20.67904 2.6857,4.98295 5.9469,9.96975 9.7741,14.94216 l 0.5083,0.65896 0.5468,0 c 0.8632,1.1539 1.7841,2.34232 2.7432,3.56337 l 0,0.004 c 1.0168,1.29682 2.139,2.679 3.338,4.11778 l 1.3524,1.61526 1.2662,-1.67569 0.7098,-0.93233 0,0 0.7481,-0.93328 0.01,0.004 44.2472,-53.35075 0.7961,-0.97453 -0.7002,-1.03784 c -1.247,-1.84643 -2.4172,-3.70532 -3.5106,-5.5412 -1.1031,-1.86561 -2.187,-3.807 -3.2325,-5.82225 -4.652,-8.94726 -8.0188,-18.18708 -10.0714,-27.69642 -2.0431,-9.51702 -2.7912,-19.31125 -2.2349,-29.36829 l 0,-0.0144 c 0.3645,-7.80487 1.5443,-15.36612 3.501,-22.64249 1.9472,-7.25718 4.7096,-14.25251 8.2394,-20.95528 0.9016,-1.63061 1.8416,-3.36866 2.7816,-5.21988 l 0.4125,-0.81243 c 2.609,-4.42951 5.5153,-8.65183 8.6998,-12.65739 3.8175,-4.78824 8.0667,-9.29928 12.7379,-13.49571 4.6713,-4.20794 9.6207,-8.02165 14.829,-11.41237 5.218,-3.39838 10.7333,-6.41492 16.5459,-9.03771 l 0,-0.004 c 5.9374,-2.60034 12.0378,-4.62355 18.2725,-6.0698 6.2539,-1.43878 12.642,-2.31183 19.1453,-2.58539 6.5128,-0.2772 12.9586,0.0263 19.2988,0.91056 6.3498,0.88417 12.6036,2.35296 18.7328,4.39497 l 0.029,0.0112 c 5.9565,1.8659 11.702,4.20391 17.2078,6.99888 5.4961,2.79889 10.7716,6.07354 15.8073,9.79038 5.0357,3.73986 9.7165,7.7972 13.9945,12.1778 4.2779,4.36045 8.1914,9.07771 11.75,14.13261 l 0,-0.004 c 3.9039,5.77045 7.2418,11.78357 9.9851,18.02978 2.7528,6.2462 4.9206,12.73508 6.5033,19.44553 1.5922,6.72963 2.5514,13.49667 2.8775,20.28577 0.3261,6.80061 0.019,13.6607 -0.9016,20.56586 -1.1223,6.89077 -2.7241,13.37294 -4.7672,19.4273 l 0,0 c -2.0334,6.03231 -4.5561,11.67519 -7.5392,16.88355 l -0.01,0.0182 c -3.7217,6.71812 -8.0284,12.97871 -12.8819,18.76067 -4.8534,5.79251 -10.2728,11.12366 -16.2294,15.96849 -5.9661,4.84484 -12.3063,8.9511 -19.011,12.2977 -6.6951,3.33795 -13.7835,5.96036 -21.2363,7.81926 l -0.048,0.0115 c -7.2802,2.04882 -14.6467,3.3159 -22.0804,3.77631 -7.4432,0.46136 -15.0112,0.13524 -22.6559,-0.98125 -3.4147,-0.49494 -6.7239,-1.13183 -9.9275,-1.90398 -3.2133,-0.77118 -6.417,-1.70063 -9.5919,-2.77588 l -1.0935,-0.37504 -0.7481,0.89204 -45.8682,55.31421 -0.3261,0.3971 -1.362,1.62198 1.8895,0.95918 c 8.4505,4.25302 17.1311,7.8797 26.0419,10.8618 8.8916,2.97539 18.023,5.33594 27.3751,7.04424 l 0.029,0.008"
             inkscape:connector-curvature="0" />
          <path
             id="path4041"
             style="fill:#ffffff;fill-opacity:1;fill-rule:nonzero;stroke:none"
             d="m 372.26236,468.52203 c -0.3971,-10.293 -4.26357,-19.01486 -11.57735,-26.13392 -3.65257,-3.54802 -7.69169,-6.26826 -12.09051,-8.14922 -4.39881,-1.87712 -9.17267,-2.91496 -14.30239,-3.11735 l -0.0556,-0.008 -250.38079,0 c 0.562081,-1.50976 1.184016,-3.0502 1.873381,-4.60888 1.019133,-2.3193 2.188186,-4.69424 3.488359,-7.11139 l 0.0187,-0.0451 c 0.670661,-1.33326 1.405013,-2.75765 2.176868,-4.24822 2.866328,-5.08463 6.107506,-9.92563 9.708282,-14.48943 l 0.008,0 c 3.82138,-4.84867 8.0744,-9.42302 12.73508,-13.71345 4.65683,-4.28563 9.60718,-8.11182 14.81843,-11.46128 5.2122,-3.35714 10.716,-6.24592 16.50083,-8.67006 l 0.004,-0.007 c 6.13014,-2.60035 12.61518,-4.65358 19.43882,-6.14856 6.81116,-1.49124 13.94557,-2.43172 21.37157,-2.80638 l 0,0.004 2.27038,0 c 5.12204,0 9.86137,-0.87295 14.18921,-2.61147 4.32783,-1.74226 8.23555,-4.35383 11.70492,-7.82713 l 0,0.008 c 3.46265,-3.46198 6.07738,-7.36998 7.82406,-11.71249 1.73804,-4.32381 2.61473,-9.05603 2.61473,-14.1892 0,-5.12185 -0.87669,-9.86904 -2.61473,-14.24905 -1.73517,-4.37253 -4.3547,-8.35545 -7.81255,-11.91114 -3.46937,-3.56701 -7.37709,-6.25723 -11.70876,-8.04812 -4.32784,-1.78725 -9.06333,-2.68649 -14.19688,-2.68649 l -6.53012,0 c -1.07237,0 -2.14377,0.0525 -3.21518,0.15357 -1.02633,0.0937 -2.03443,0.24354 -2.99361,0.43096 -7.96986,0.57321 -15.86394,1.67473 -23.66498,3.28962 l -0.004,0 c -7.81927,1.61862 -15.56755,3.77304 -23.21896,6.45204 -7.62455,2.66777 -15.0093,5.74762 -22.11686,9.2284 -7.115224,3.48078 -13.972332,7.37746 -20.555497,11.67508 -13.177457,8.59141 -25.126104,18.82023 -35.826948,30.66385 -5.358,5.93494 -10.285039,12.19966 -14.766153,18.78282 -4.48121,6.57923 -8.550259,13.51509 -12.188443,20.78762 l -0.0075,0.007 c -7.062757,14.32445 -12.199569,29.0719 -15.3993867,44.20494 -3.1960287,15.13016 -4.4624485,30.67565 -3.7917777,46.62975 0.6706804,15.95027 3.2784609,31.31927 7.8120804,46.07823 4.533678,14.758 11.008168,28.92514 19.412247,42.48896 l 0.03002,0.0595 2.349233,3.47321 0.0075,0.008 2.480353,3.619 0.01122,0.008 c 0.869308,1.26324 1.768543,2.49579 2.671518,3.6871 l 0.0037,-0.008 c 0.801782,1.05702 1.6074,2.07951 2.416663,3.06172 l 0,4.07653 2.978745,-3.5931 40.570495,-48.91837 c 1.000429,-1.20665 2.053229,-2.33465 3.13231,-3.36098 1.082823,-1.02728 2.221853,-1.97496 3.402129,-2.8363 l 1.217684,-0.88437 -0.738092,-1.29682 c -1.746002,-3.102 -3.345921,-6.26059 -4.773474,-9.44604 -1.116489,-2.48716 -2.150681,-5.02804 -3.102383,-7.62071 l 208.810157,0 c -0.75296,2.09102 -1.61527,4.24151 -2.58212,6.44859 -1.29586,2.9562 -2.7989,6.05053 -4.4957,9.25804 -3.53747,6.70661 -7.71087,12.93459 -12.50296,18.659 -4.80359,5.73304 -10.2364,10.98553 -16.28789,15.73349 l -0.008,0 c -6.06971,4.75851 -12.48377,8.84559 -19.24314,12.24398 -6.76704,3.40606 -13.8861,6.14165 -21.338,8.18663 l -0.0115,0 c -7.27637,2.04978 -14.63522,3.28616 -22.08041,3.71012 -7.45189,0.41917 -15.00547,0.0182 -22.64536,-1.18843 -5.18535,-0.8201 -10.27382,-1.98934 -15.24911,-3.49526 -4.96089,-1.50304 -9.78655,-3.34276 -14.47024,-5.50092 l -1.33806,-0.62539 -0.78653,1.25557 c -0.41629,0.6628 -0.86902,1.33327 -1.34861,1.99319 -0.50645,0.69636 -1.01194,1.35245 -1.50304,1.94043 l -0.004,0 -42.267484,50.9643 -1.262669,1.5251 1.716075,1.00043 c 9.861748,5.72153 20.033898,10.52512 30.502428,14.39543 10.4503,3.86647 21.26318,6.82267 32.38395,8.86094 l 0.0489,0.008 c 14.71004,2.29245 29.32992,2.86604 43.83757,1.72366 14.50766,-1.14335 28.93666,-4.00939 43.2611,-8.59525 14.31966,-4.58298 27.65806,-10.70449 39.98933,-18.35206 12.33414,-7.64757 23.66882,-16.82696 33.98004,-27.5209 l -0.004,-0.007 c 8.40053,-8.58757 15.87545,-17.75257 22.40557,-27.48349 6.54547,-9.74531 12.16245,-20.07092 16.83847,-30.94423 4.67602,-10.88481 8.19431,-22.07273 10.53568,-33.55704 2.34232,-11.48046 3.51828,-23.24102 3.51828,-35.26438 l 0,-2.27135 -0.008,-0.0595"
             inkscape:connector-curvature="0" />
          <path
             id="path4043"
             style="fill:#ffffff;fill-opacity:1;fill-rule:nonzero;stroke:none"
             d="m 3057.496,667.39917 c -0.9975,0 -1.9471,0.18704 -2.82,0.54673 -0.8728,0.36354 -1.6594,0.9026 -2.35,1.61527 -0.681,0.69637 -1.1989,1.49441 -1.5443,2.36727 -0.3548,0.87381 -0.5275,1.81765 -0.5275,2.8104 l 0,29.65988 -4.4027,-4.41033 0,-0.004 c -0.7865,-0.78653 -1.6498,-1.50208 -2.5802,-2.13131 l 0,-0.008 c -0.9112,-0.61484 -1.88,-1.1539 -2.9063,-1.59225 l -0.01,0 c -1.0167,-0.43067 -2.0718,-0.76447 -3.1653,-0.98604 l -0.01,0 c -1.1126,-0.22445 -2.2349,-0.33667 -3.3379,-0.33667 -1.1319,0 -2.2541,0.11222 -3.3476,0.32996 l 0,0.007 c -1.103,0.22157 -2.1773,0.55537 -3.2037,0.98221 l -0.01,0.004 c -1.0551,0.44219 -2.0334,0.97741 -2.9351,1.59225 l 0,0.0115 c -0.892,0.61388 -1.7361,1.32559 -2.5034,2.1313 l -0.01,0 -4.4986,4.50433 0,-29.75388 c 0,-0.99275 -0.1726,-1.93659 -0.5467,-2.82863 -0.3549,-0.87286 -0.8921,-1.66322 -1.6019,-2.36822 l 0,-0.004 c -0.7002,-0.70404 -1.5155,-1.2479 -2.3883,-1.59992 -0.8729,-0.35202 -1.8321,-0.53906 -2.8392,-0.53906 -0.9976,0 -1.9567,0.18704 -2.8392,0.53906 l -0.01,0 c -0.8728,0.35202 -1.6786,0.89588 -2.3788,1.59992 l 0,0.004 c -0.7098,0.70116 -1.2469,1.49536 -1.6114,2.36822 l 0,0.008 c -0.3549,0.87286 -0.5371,1.82053 -0.5371,2.82096 l 0,47.31078 c 0,0.99275 0.1822,1.94139 0.5371,2.81424 l 0,0 c 0.3549,0.88053 0.8921,1.67857 1.5923,2.38261 0.7098,0.70117 1.5059,1.24407 2.3787,1.59992 l 0,-0.004 c 2.7049,1.09442 5.6592,0.47575 7.8462,-1.43111 l 0.086,-0.0787 1.2661,-1.27379 14.9345,-15.01698 c 0.3741,-0.31462 0.7865,-0.56976 1.2086,-0.73858 l 0,-0.004 c 0.4028,-0.15731 0.8728,-0.24363 1.362,-0.24363 0.4604,0 0.892,0.0787 1.2853,0.23691 l 0,0 c 0.4125,0.16786 0.8057,0.41533 1.1798,0.72994 l 13.0257,13.0919 0.5468,0.5429 c 3.1269,3.14708 5.6975,6.11863 10.4838,4.18492 l 0,0.004 c 0.8825,-0.35969 1.6786,-0.89875 2.3788,-1.59992 0.7002,-0.70404 1.2469,-1.50208 1.6018,-2.38261 l -0.01,0 c 0.3549,-0.87285 0.5467,-1.82149 0.5467,-2.81424 l 0,-47.31078 c 0,-0.99275 -0.1823,-1.93659 -0.5467,-2.82096 l 0.01,0 c -0.3549,-0.87285 -0.9016,-1.67473 -1.6018,-2.37973 -0.7002,-0.70404 -1.4963,-1.24022 -2.3788,-1.59992 l 0,0.008 c -0.8728,-0.35969 -1.8224,-0.54673 -2.82,-0.54673"
             inkscape:connector-curvature="0" />
          <path
             id="path4045"
             style="fill:#ffffff;fill-opacity:1;fill-rule:nonzero;stroke:none"
             d="m 2993.1636,729.47658 c 1.0167,0 1.9663,-0.19184 2.8392,-0.55921 0.8632,-0.36257 1.6689,-0.91794 2.3692,-1.64404 0.7002,-0.71555 1.2373,-1.5251 1.5826,-2.40179 0.3549,-0.88053 0.5467,-1.82917 0.5467,-2.82192 0,-2.0421 -0.7193,-3.76863 -2.1389,-5.19686 l 0,-0.007 c -0.7002,-0.70117 -1.4964,-1.24023 -2.3788,-1.59704 -0.8729,-0.35586 -1.8129,-0.53907 -2.82,-0.53907 l -12.901,0 0,-39.9711 c 0,-1.0081 -0.1919,-1.95961 -0.5564,-2.84014 l 0,0 c -0.3644,-0.86902 -0.9208,-1.66706 -1.6402,-2.37494 -0.7194,-0.69732 -1.5251,-1.22583 -2.3979,-1.57786 l 0,-0.008 c -0.8825,-0.35202 -1.8321,-0.53906 -2.8296,-0.53906 -1.0072,0 -1.9567,0.18704 -2.8296,0.53906 l 0,0.008 c -0.8729,0.35586 -1.669,0.89588 -2.3692,1.59225 l -0.01,0 c -0.7002,0.705 -1.2373,1.50688 -1.5922,2.37973 -0.3549,0.87286 -0.5372,1.82053 -0.5372,2.82096 l 0,39.9711 -12.901,0 c -0.9975,0 -1.9471,0.18321 -2.82,0.53907 -0.8728,0.35298 -1.669,0.89587 -2.3788,1.59704 l 0,0.007 c -0.7002,0.705 -1.2373,1.4992 -1.5922,2.36823 l -0.01,0.008 c -0.3453,0.87286 -0.5371,1.82053 -0.5371,2.82096 0,2.02388 0.7098,3.77343 2.1198,5.22371 l 0.01,0.007 c 0.7098,0.71938 1.4964,1.27475 2.3692,1.63732 0.8825,0.36737 1.8321,0.55921 2.8392,0.55921 l 40.5639,0"
             inkscape:connector-curvature="0" />
        </g>
      </g>
    </g>
  </g>
</svg>
