<?xml version="1.0" encoding="UTF-8" standalone="no"?>
<!-- Created with Inkscape (http://www.inkscape.org/) -->

<svg
   xmlns:dc="http://purl.org/dc/elements/1.1/"
   xmlns:cc="http://creativecommons.org/ns#"
   xmlns:rdf="http://www.w3.org/1999/02/22-rdf-syntax-ns#"
   xmlns:svg="http://www.w3.org/2000/svg"
   xmlns="http://www.w3.org/2000/svg"
   xmlns:sodipodi="http://sodipodi.sourceforge.net/DTD/sodipodi-0.dtd"
   xmlns:inkscape="http://www.inkscape.org/namespaces/inkscape"
   width="200"
   height="200"
   viewBox="0 0 200 200"
   id="svg3427"
   version="1.1"
   inkscape:version="0.91 r13725"
   sodipodi:docname="fedora-logo-sprite.svg">
  <defs
     id="defs3429" />
  <sodipodi:namedview
     id="base"
     pagecolor="#ffffff"
     bordercolor="#666666"
     borderopacity="1.0"
     inkscape:pageopacity="0.0"
     inkscape:pageshadow="2"
     inkscape:zoom="0.35"
     inkscape:cx="375"
     inkscape:cy="62.857143"
     inkscape:document-units="px"
     inkscape:current-layer="g3445"
     showgrid="false"
     units="px"
     fit-margin-top="10"
     fit-margin-left="10"
     fit-margin-bottom="10"
     fit-margin-right="10"
     inkscape:window-width="1366"
     inkscape:window-height="709"
     inkscape:window-x="1916"
     inkscape:window-y="312"
     inkscape:window-maximized="1" />
  <metadata
     id="metadata3432">
    <rdf:RDF>
      <cc:Work
         rdf:about="">
        <dc:format>image/svg+xml</dc:format>
        <dc:type
           rdf:resource="http://purl.org/dc/dcmitype/StillImage" />
        <dc:title></dc:title>
      </cc:Work>
    </rdf:RDF>
  </metadata>
  <g
     inkscape:label="Layer 1"
     inkscape:groupmode="layer"
     id="layer1"
     transform="translate(0,-852.36216)">
    <g
       transform="matrix(6.6217885,0,0,-6.6217885,-776.26631,1087.9409)"
       inkscape:label="ink_ext_XXXXXX"
       id="g3443">
      <g
         transform="scale(0.1,0.1)"
         id="g3445">
        <path
           inkscape:connector-curvature="0"
           id="path3453"
           style="fill:#139dd4;fill-opacity:1;fill-rule:nonzero;stroke:none"
           d="m 1464.702,139.23705 c 0,-2.15998 -0.3858,-4.16769 -1.1445,-6.01653 -0.7588,-1.84886 -1.9034,-3.53558 -3.4167,-5.05037 l 0,-0.004 c -1.505,-1.50334 -3.1861,-2.68406 -5.0307,-3.52904 -1.832,-0.84173 -3.8317,-1.35432 -5.9824,-1.52297 l -0.059,-0.004 -2.2344,0 -0.021,0.004 c -5.429,0.16538 -10.6945,0.83519 -15.7797,2.00113 -5.0894,1.166 -10.0237,2.8429 -14.7904,5.016 -4.7623,2.17146 -9.223,4.71467 -13.3732,7.61483 -4.142,2.9002 -7.9822,6.1656 -11.5036,9.79123 -3.5257,3.62895 -6.6909,7.55424 -9.4913,11.77435 -2.7963,4.21829 -5.2319,8.72832 -7.2946,13.52008 -2.0667,4.80308 -3.6137,9.78977 -4.6408,14.94792 -1.0271,5.16026 -1.5427,10.49701 -1.5427,15.99935 l 0,64.54284 c 0,2.24538 0.394,4.32684 1.1822,6.23767 0.784,1.90958 1.9704,3.64685 3.5467,5.20428 l -0.01,0.003 c 1.5552,1.5524 3.3035,2.72329 5.2319,3.50766 1.9284,0.78144 4.0287,1.17426 6.2967,1.17426 4.5361,0 8.4349,-1.55911 11.6378,-4.67354 1.6182,-1.55407 2.8382,-3.29679 3.6473,-5.21098 0.8091,-1.91419 1.2157,-3.99732 1.2157,-6.2427 l -0.01,0 -0.2516,-64.54284 0.01,0 c 0,-3.262 0.3102,-6.42086 0.9181,-9.47325 0.6079,-3.05574 1.526,-6.01171 2.7459,-8.85616 1.2242,-2.85953 2.6622,-5.54174 4.3096,-8.04411 1.6477,-2.499 3.5174,-4.83577 5.6009,-7.00066 2.071,-2.15524 4.339,-4.11553 6.7873,-5.86916 2.4525,-1.75865 5.0852,-3.30979 7.894,-4.65413 2.8005,-1.33628 5.6973,-2.36631 8.6948,-3.07867 2.9975,-0.71071 6.0745,-1.10868 9.2314,-1.19382 l 0,0.004 1.2408,0 c 2.2513,0 4.339,-0.40284 6.2717,-1.20528 1.9327,-0.8024 3.7017,-2.0044 5.299,-3.6027 l -0.01,0 c 1.6014,-1.5983 2.8045,-3.36693 3.6054,-5.29437 0.8007,-1.93238 1.2073,-4.0236 1.2073,-6.27367" />
        <path
           inkscape:connector-curvature="0"
           id="path3467"
           style="fill:#0c61ab;fill-opacity:1;fill-rule:nonzero;stroke:none"
           d="m 1353.9057,203.50643 c -0.1735,-4.49872 -1.8633,-8.31074 -5.06,-11.42223 -1.5964,-1.55073 -3.3617,-2.73965 -5.2842,-3.56176 -1.9226,-0.82042 -4.0091,-1.27402 -6.2511,-1.36248 l -0.024,-0.004 -109.4319,0 c 0.2457,-0.65986 0.5175,-1.33314 0.8189,-2.01438 0.4454,-1.01369 0.9563,-2.05169 1.5246,-3.10814 l 0.01,-0.0197 c 0.2931,-0.58272 0.614,-1.20527 0.9514,-1.85676 1.2528,-2.22231 2.6694,-4.33815 4.2431,-6.33283 l 0.01,0 c 1.6702,-2.11918 3.529,-4.11848 5.5661,-5.99367 2.0353,-1.8731 4.1989,-3.5454 6.4765,-5.00934 2.2781,-1.46729 4.6835,-2.72987 7.2119,-3.78938 l 0,-0.004 c 2.6793,-1.13652 5.5136,-2.03392 8.4959,-2.68732 2.977,-0.65177 6.0951,-1.06282 9.3407,-1.22658 l 0,0.002 0.9923,0 c 2.2387,0 4.3101,-0.38154 6.2016,-1.14138 1.8915,-0.76148 3.5994,-1.90291 5.1157,-3.42097 l 0,0.004 c 1.5134,-1.51311 2.6563,-3.22116 3.4197,-5.11913 0.7596,-1.88979 1.1427,-3.95808 1.1427,-6.2016 0,-2.23859 -0.3831,-4.31342 -1.1427,-6.22778 -0.7584,-1.91108 -1.9033,-3.65188 -3.4146,-5.20595 -1.5162,-1.55902 -3.2243,-2.73482 -5.1174,-3.51756 -1.8916,-0.78114 -3.9612,-1.17416 -6.205,-1.17416 l -2.854,0 c -0.4687,0 -0.937,0.023 -1.4053,0.0671 -0.4485,0.0409 -0.8891,0.10643 -1.3083,0.18835 -3.4834,0.25053 -6.9336,0.73197 -10.3431,1.43778 l 0,0 c -3.4174,0.70744 -6.804,1.64907 -10.1481,2.81996 -3.3324,1.166 -6.56,2.51209 -9.6664,4.03342 -3.1098,1.52133 -6.1068,3.22444 -8.9841,5.10278 -5.7593,3.75501 -10.9816,8.22568 -15.6585,13.40212 -2.3418,2.59396 -4.4952,5.33205 -6.4538,8.20932 -1.9585,2.87556 -3.737,5.90699 -5.3271,9.08556 l -0.01,0.003 c -3.0868,6.26072 -5.3319,12.70632 -6.7304,19.32045 -1.3969,6.61287 -1.9504,13.40727 -1.6573,20.38026 0.2932,6.97132 1.4329,13.68859 3.4144,20.13922 1.9814,6.45021 4.8112,12.64219 8.4843,18.57047 l 0.014,0.026 1.0267,1.51803 0.01,0.003 1.0841,1.58173 0.01,0.003 c 0.38,0.55213 0.7729,1.09083 1.1677,1.61151 l 0,-0.003 c 0.3503,0.46198 0.7024,0.90888 1.0561,1.33817 l 0,1.78171 1.3019,-1.57042 17.7318,-21.38054 c 0.4373,-0.52739 0.8974,-1.0204 1.369,-1.46897 0.4733,-0.44899 0.9711,-0.86319 1.487,-1.23966 l 0.5322,-0.38653 -0.3227,-0.56679 c -0.763,-1.35577 -1.4623,-2.73628 -2.0862,-4.12854 -0.488,-1.08706 -0.9399,-2.19759 -1.3559,-3.33076 l 91.2628,0 c -0.329,0.91391 -0.7059,1.85382 -1.1285,2.81846 -0.5664,1.29206 -1.2233,2.64448 -1.965,4.04637 -1.546,2.93124 -3.37,5.65328 -5.4644,8.15522 -2.0995,2.50572 -4.474,4.8014 -7.1189,6.87658 l -0.01,0 c -2.6527,2.07977 -5.4561,3.8661 -8.4104,5.35142 -2.9576,1.48866 -6.0691,2.6843 -9.3259,3.57809 l -0.01,0 c -3.1802,0.89589 -6.3964,1.43627 -9.6505,1.62157 -3.2569,0.1832 -6.5583,0.008 -9.8974,-0.51942 -2.2663,-0.35845 -4.4902,-0.86948 -6.6648,-1.52766 -2.1682,-0.65693 -4.2774,-1.46101 -6.3243,-2.40427 l -0.5849,-0.27333 -0.3438,0.54876 c -0.1819,0.28969 -0.3798,0.58273 -0.5894,0.87116 -0.2213,0.30435 -0.4423,0.5911 -0.6569,0.84809 l 0,0 -18.4735,22.27476 -0.5518,0.66657 0.75,0.43725 c 4.3101,2.50069 8.7561,4.60017 13.3314,6.29175 4.5674,1.68991 9.2934,2.98196 14.1537,3.87282 l 0.022,0.003 c 6.4293,1.00195 12.8191,1.25265 19.1598,0.75335 6.3408,-0.49972 12.6472,-1.75236 18.9078,-3.75669 6.2586,-2.00306 12.0882,-4.67857 17.4778,-8.02105 5.3908,-3.34251 10.3447,-7.3545 14.8513,-12.02845 l 0,-0.003 c 3.6715,-3.75334 6.9386,-7.75903 9.7926,-12.01209 2.8609,-4.25935 5.3158,-8.7723 7.3595,-13.52466 2.0437,-4.75739 3.5814,-9.64725 4.6047,-14.66664 1.0237,-5.01772 1.5378,-10.15786 1.5378,-15.41285 l 0,-0.99273 -0.01,-0.026" />
      </g>
    </g>
  </g>
</svg>
